<svg width="600" height="527" xmlns="http://www.w3.org/2000/svg" xmlns:xlink="http://www.w3.org/1999/xlink"><defs><linearGradient x1="50%" y1="0%" x2="50%" y2="100%" id="d"><stop stop-color="#D2F1FF" offset="0%"/><stop stop-color="#A6DEFF" offset="100%"/></linearGradient><linearGradient x1="50%" y1="0%" x2="50%" y2="100%" id="e"><stop stop-color="#F9FDFF" offset="0%"/><stop stop-color="#D9EFFF" offset="100%"/></linearGradient><linearGradient x1="32.791%" y1="0%" x2="50%" y2="100%" id="g"><stop stop-color="#BDCCFF" offset="0%"/><stop stop-color="#108EE9" offset="100%"/></linearGradient><linearGradient x1="8.191%" y1="47.527%" x2="102.093%" y2="27.162%" id="i"><stop stop-color="red" offset="0%"/><stop stop-color="#B91E1E" offset="17.311%"/><stop stop-color="red" offset="56.406%"/><stop stop-color="#B02222" offset="69.081%"/><stop stop-color="red" offset="100%"/></linearGradient><linearGradient x1="4.347%" y1="58.377%" x2="94.209%" y2="32.155%" id="j"><stop stop-color="#FFF" offset="0%"/><stop stop-color="#FFD9D9" offset="21.271%"/><stop stop-color="#FFFCFC" offset="68.089%"/><stop stop-color="#FFE6E6" offset="79.25%"/><stop stop-color="#FFF" offset="100%"/></linearGradient><linearGradient x1="84.572%" y1="43.528%" x2="26.116%" y2="62.553%" id="k"><stop stop-color="#108EE9" offset="0%"/><stop stop-color="#3454FC" offset="100%"/></linearGradient><linearGradient x1="87.789%" y1="63.241%" x2="24.196%" y2="52.269%" id="l"><stop stop-color="#1C2A65" offset="0%"/><stop stop-color="#07538A" offset="100%"/></linearGradient><linearGradient x1="50%" y1="0%" x2="50%" y2="100%" id="m"><stop stop-color="#076AB1" offset="0%"/><stop stop-color="#162B86" offset="100%"/></linearGradient><linearGradient x1="87.789%" y1="80.746%" x2="24.196%" y2="55.268%" id="n"><stop stop-color="#1C2A65" offset="0%"/><stop stop-color="#07538A" offset="100%"/></linearGradient><linearGradient x1="50%" y1="0%" x2="50%" y2="100%" id="o"><stop stop-color="#7ACAF4" offset="0%"/><stop stop-color="#719FDF" offset="100%"/></linearGradient><linearGradient x1="50%" y1="0%" x2="50%" y2="100%" id="p"><stop stop-color="#F9FDFF" offset="0%"/><stop stop-color="#D9EFFF" offset="100%"/></linearGradient><linearGradient x1="50%" y1="0%" x2="50%" y2="100%" id="q"><stop stop-color="#F9FDFF" offset="0%"/><stop stop-color="#D9EFFF" offset="100%"/></linearGradient><linearGradient x1="66.905%" y1="80.958%" x2="38.457%" y2="55.304%" id="r"><stop stop-color="#1C2A65" offset="0%"/><stop stop-color="#07538A" offset="100%"/></linearGradient><linearGradient x1="50%" y1="0%" x2="50%" y2="100%" id="s"><stop stop-color="#076AB1" offset="0%"/><stop stop-color="#162B86" offset="100%"/></linearGradient><linearGradient x1="82.078%" y1="80.958%" x2="28.096%" y2="55.304%" id="t"><stop stop-color="#1C2A65" offset="0%"/><stop stop-color="#07538A" offset="100%"/></linearGradient><linearGradient x1="19.094%" y1="5.889%" x2="85.051%" y2="82.718%" id="u"><stop stop-color="#007BD3" offset="0%"/><stop stop-color="#3454FC" offset="100%"/></linearGradient><linearGradient x1="33.086%" y1="64.812%" x2="33.086%" y2="21.353%" id="v"><stop stop-color="#0D1434" offset="0%"/><stop stop-color="#2A48AC" offset="100%"/></linearGradient><linearGradient x1="50%" y1="0%" x2="50%" y2="100%" id="w"><stop stop-color="#108EE9" offset="0%"/><stop stop-color="#3454FC" offset="100%"/></linearGradient><linearGradient x1="50%" y1="40.286%" x2="50%" y2="91.484%" id="x"><stop stop-color="#FFE476" offset="0%"/><stop stop-color="#FCA234" offset="100%"/></linearGradient><path id="a" d="M0 0h600v527H0z"/><path d="M10 0h200c5.523 0 10 4.477 10 10v365H0V10C0 4.477 4.477 0 10 0z" id="f"/><radialGradient cx="48.65%" cy="59.08%" fx="48.65%" fy="59.08%" r="59.869%" gradientTransform="matrix(.02255 .99955 -.72012 .02846 .901 .088)" id="b"><stop stop-color="#FFF" offset="0%"/><stop stop-color="#FFF" stop-opacity="0" offset="100%"/></radialGradient><filter x="-49%" y="-40.3%" width="198%" height="180.6%" filterUnits="objectBoundingBox" id="y"><feOffset dy="2" in="SourceAlpha" result="shadowOffsetOuter1"/><feGaussianBlur stdDeviation="12" in="shadowOffsetOuter1" result="shadowBlurOuter1"/><feColorMatrix values="0 0 0 0 0.260213415 0 0 0 0 0.515606303 0 0 0 0 1 0 0 0 0.3 0" in="shadowBlurOuter1" result="shadowMatrixOuter1"/><feMerge><feMergeNode in="shadowMatrixOuter1"/><feMergeNode in="SourceGraphic"/></feMerge></filter></defs><g fill="none" fill-rule="evenodd"><mask id="c" fill="#fff"><use xlink:href="#a"/></mask><path d="M707 228.46l-.584 88.018-351.36 39.093L707 400.981l-.584 88.395L351.46 355.971l-1.252.139L666.68 561H553.565L349.489 356.19l-1.529.17 1.254-.447-1.254-1.258 1.699 1.1.63-.225-2.329-.875 3.514.453L707 228.461zM253.88 561l92.16-202.134v-2.284L142.355 561H29.24l316.191-204.708-2.891-.321-354.956 133.405-.584-88.394 351.944-45.411-351.36-39.093L-13 228.46l355.526 126.647 3.514-.453-2.329.875 1.869.666.46-.298v-1.243l.438.96 1.482-.96-1.317 1.322.357.783.96-2.105v4.211L440.12 561H253.88zM171.184 17l175.81 335.81-.008-2.785L276.92 17h140.16l-69.12 333.025v4.63l-.484-2.299-.204.984.688 1.315-.749-1.021-.211 1.021-.005-1.315L100.28 17h70.904zm424.456 0L347.96 354.655 524.736 17h70.904zM707 17l-.584 94.802L347.96 354.655 707 17zm-720 0l359.04 337.655-358.456-242.853L-13 17z" fill="url(#b)" opacity=".5" mask="url(#c)"/><g mask="url(#c)"><path d="M249.238 0h220c11.046 0 20 8.954 20 20v375h-260V20c0-11.046 8.954-20 20-20z" fill="url(#d)" transform="translate(28.762 132)"/><path d="M209 0h220c11.046 0 20 8.954 20 20v375H189V20c0-11.046 8.954-20 20-20z" fill="url(#e)" transform="translate(28.762 132)"/><g transform="translate(238 152)"><mask id="h" fill="#fff"><use xlink:href="#f"/></mask><use fill="url(#g)" xlink:href="#f"/><g mask="url(#h)"><path d="M245.9 1.112c-26.175-3.001-45.4.073-57.675 9.222-18.413 13.725-9.7 30.621-29 43.46-12.867 8.558-28.54 10.927-47.02 7.105L6 76.767 0 211.79l166.974-58.584h83.75L245.9 1.112z" fill="url(#i)" transform="translate(-17.225 64.526)"/><path d="M245.9 47.112c-20.842-3.001-37.4.073-49.675 9.222-18.413 13.725-9.7 30.621-29 43.46-12.867 8.558-28.54 10.927-47.02 7.105L0 142.914l15.292 74.444 159.682-57.152h75.75L245.9 47.112z" fill="url(#j)" transform="translate(-17.225 64.526)"/></g><path d="M223.918 175.657c8.356-7.223 20.986-6.305 28.21 2.051 7.223 8.356 6.305 20.986-2.051 28.21-40.882 35.34-83.166 53.039-126.435 52.138-11.043-.23-19.81-9.369-19.58-20.412.228-10.929 9.18-19.627 20.068-19.584l.345.004c32.576.679 65.584-13.137 99.443-42.407z" fill="url(#k)" mask="url(#h)" transform="rotate(40 180.528 214.438)"/></g><path d="M159.717 317.267l42.327-7.463c11.248-1.983 22.299 4.386 26.22 15.114l20.54 56.19c4.469 12.22-1.817 25.75-14.038 30.217a23.561 23.561 0 01-3.999 1.075l-62.952 11.1c-12.814 2.26-25.035-6.297-27.294-19.112a23.561 23.561 0 01-.358-4.124l.084-59.827c.016-11.421 8.222-21.186 19.47-23.17z" fill="#4A4A4A"/><path d="M106.694 110.049c4.717-7.472 14.599-9.706 22.071-4.988 7.472 4.717 9.705 14.598 4.988 22.07l-3.106 4.907-2.5 3.928-3.833 5.983-2.74 4.244-2.197 3.377-1.701 2.598-2.055 3.118-2.362 3.553-1.513 2.254-1.82 2.69-1.744 2.547-1.339 1.935-1.29 1.845-.935 1.325-.908 1.273-.88 1.223-1.131 1.552-1.083 1.463-1.034 1.373-.986 1.283-.708.905-.457.575-.663.82c-4.717 5.778-11.43 8.72-19.113 9.334-5.674.454-12.01-.337-19.244-2.2-3.02-.777-6.243-1.756-9.677-2.938l-1.384-.483-1.407-.505-.712-.26-1.44-.538-1.464-.559-1.486-.58-.752-.298-1.52-.613c-.51-.208-1.025-.42-1.543-.635l-1.566-.656c-.263-.11-.527-.223-.791-.336l-1.6-.688-.81-.353-1.635-.72-1.658-.743a334.65 334.65 0 01-.838-.38l-1.693-.774c-.568-.262-1.14-.528-1.716-.797l-1.74-.818-.878-.417-1.775-.85-1.799-.873a452.01 452.01 0 01-.908-.444l-1.834-.905-.926-.46-2.813-1.414c-.316-.16-.633-.32-.95-.482l-1.918-.98c-7.86-4.038-10.958-13.683-6.92-21.543 4.038-7.86 13.683-10.959 21.543-6.92l1.68.859 1.658.84 1.635.82 1.611.801 1.589.782 1.565.762 1.542.743 1.52.724 1.495.704 1.472.684 1.45.665 1.425.646.703.315 1.39.617 1.367.597 1.343.577 1.319.558 1.295.539 1.271.519.627.252 1.236.49 1.211.47 1.187.451c.196.074.391.147.585.218l1.151.422 1.127.402 1.102.383 1.079.363 1.053.344 1.03.324 1.004.305c.331.098.658.194.98.285l.956.266.93.246c.484.125.952.24 1.404.345l.882.2c.431.093.846.177 1.244.253l.775.14c.376.064.736.12 1.078.167l.662.084c.426.049.822.083 1.185.104l.188.008.602-.788.89-1.188.939-1.275 1.244-1.718 1.05-1.473.82-1.162 1.428-2.046 1.505-2.182 1.258-1.843 1.641-2.426 1.717-2.56 1.792-2.697 1.867-2.83 2.339-3.573 2.864-4.412 2.57-3.989 4.054-6.342 3.802-5.996.505-.8z" fill="url(#l)" fill-rule="nonzero" transform="rotate(-10 1956.728 3.883)"/><path d="M140.136 97.06h27.906c18.65 0 34.09 14.49 35.27 33.101l6.528 102.806c.412 6.493-4.517 12.091-11.01 12.503a11.78 11.78 0 01-.747.024h-87.988c-6.507 0-11.781-5.274-11.781-11.78 0-.25.008-.499.024-.747l6.527-102.806c1.182-18.611 16.621-33.102 35.27-33.102z" fill="url(#m)" transform="rotate(-10 1956.728 3.883)"/><g fill="#FFF"><path d="M161.463 463.42c-1.055-5.982 2.912-11.683 8.86-12.732 5.949-1.048 11.626 2.952 12.681 8.934 1.055 5.983-2.912 11.683-8.86 12.732-5.949 1.05-11.626-2.95-12.681-8.933zm7.489-3.826c-.237.079-.476.142-.718.184a4.18 4.18 0 01-.992.058 4.47 4.47 0 01-1.523-.39c-.063-.028-.174-.047-.208-.014-.045.043-.056.146-.044.217.065.413.142.825.214 1.237l.269 1.522.575 3.268c.039.223.148.392.359.477.884.36 1.794.425 2.724.22.725-.16 1.401-.448 2.052-.795.724-.386 1.438-.791 2.16-1.184.63-.344 1.279-.648 1.973-.84 1.013-.279 2.017-.263 3.004.132.228.092.306.025.264-.211l-.532-3.02-.046-.257c-.161-.917-.324-1.833-.483-2.75-.046-.261-.192-.431-.432-.54-1.304-.587-2.591-.461-3.84.14-.73.35-1.426.77-2.124 1.182-.858.506-1.698 1.044-2.652 1.364zM189.299 453.153l.162-.029-.026.012c2.69-.378 5.225 1.481 5.71 4.233.486 2.757-1.267 5.374-3.932 5.934l.044.003-3.784.667-1.795-10.182 3.544-.625.019-.004.019-.004c.013-.003.026-.003.039-.005zm12.953-2.286c2.335-.412 4.564 1.16 5.034 3.52l.005-.002 1.042 5.907-2.142.378-.385-2.184-4.286.756.385 2.184-2.142.377-1.042-5.906.005-.001c-.365-2.379 1.193-4.618 3.526-5.03zm24.59-4.336c2.334-.412 4.564 1.16 5.034 3.52l.005-.001 1.042 5.906-2.143.378-.385-2.183-4.286.755.385 2.184-2.142.378-1.041-5.907.005-.001c-.366-2.379 1.193-4.618 3.526-5.03zm-12.288 2.167c2.334-.412 4.564 1.16 5.034 3.52l.005-.002 1.041 5.908-2.142.377-1.026-5.82c-.22-1.2-1.347-2.004-2.526-1.797-1.18.208-1.964 1.35-1.76 2.552l1.026 5.821-2.142.378-1.042-5.907c-.36-2.38 1.198-4.619 3.532-5.03zm-26.353 6.903l.071.406.005-.002.88 4.991h-.005l.072.406 1.627-.29c1.469-.36 2.424-1.825 2.152-3.365-.272-1.545-1.677-2.596-3.184-2.424l-1.618.278zm14.437-2.547c-1.179.207-1.964 1.348-1.759 2.551l.255 1.45 4.286-.755-.256-1.45c-.219-1.2-1.346-2.004-2.526-1.796zm24.59-4.336c-1.18.208-1.964 1.349-1.759 2.551l.255 1.45 4.286-.755-.257-1.45c-.218-1.2-1.346-2.004-2.525-1.796z"/></g><path d="M176.842 399.18l37.125-6.546 4.091 23.203c1.808 10.252-5.037 20.028-15.289 21.836-10.252 1.807-20.028-5.038-21.836-15.29l-4.09-23.203z" fill="#FF9983"/><g transform="rotate(-10 2053.984 -620.622)"><path d="M84.476 37.339c-5.281 0-5.281-19.127 0-19.127a9.563 9.563 0 010 19.127zM9.748 37.339c5.281 0 5.281-19.127 0-19.127a9.563 9.563 0 000 19.127z" fill="#FFC0B3"/><path d="M21.179.74h51.834c6.506 0 11.78 5.274 11.78 11.78v28.03c0 20.82-16.877 37.697-37.697 37.697-20.82 0-37.698-16.878-37.698-37.698V12.52c0-6.506 5.275-11.78 11.78-11.78z" fill="#FFCBC0"/><circle fill="#4A4A4A" fill-rule="nonzero" cx="64.204" cy="32.396" r="5.301"/><circle fill="#4A4A4A" fill-rule="nonzero" cx="30.04" cy="32.396" r="5.301"/><path d="M84.233.74v77.507V.74z" fill="#FFCBC0"/><path d="M46.76 39.64l1.584 5.317a2.989 2.989 0 11-5.729 0l1.584-5.316a1.336 1.336 0 012.561 0z" fill="#FF9983"/><path d="M38.876 57.725c2.534 1.38 5.078 2.072 7.63 2.072 2.554 0 5.117-.691 7.69-2.072" stroke="#E66246" stroke-width="3.534" stroke-linecap="round"/></g><path d="M175.797 358.429a1.767 1.767 0 01.815 3.433l-.201.047-6.961 1.228a1.767 1.767 0 01-.815-3.433l.201-.048 6.961-1.227z" fill="#4A4A4A" fill-rule="nonzero"/><path d="M145.142 339.37l60.62-10.689c1.844 10.462-5.142 20.439-15.604 22.284l-41.675 7.348-3.34-18.943z" fill="#4A4A4A"/><path d="M224.705 325.34l-22.732 4.01c1.844 10.461 11.821 17.447 22.283 15.602l3.789-.668-3.34-18.943z" fill="#4A4A4A"/><path d="M208.281 352.7a1.767 1.767 0 01.815 3.434l-.2.047-6.962 1.228a1.767 1.767 0 01-.814-3.433l.2-.048 6.961-1.227z" fill="#4A4A4A" fill-rule="nonzero"/><path d="M187.963 107.306c8.606-2.007 17.209 3.342 19.216 11.948l.586 2.54.566 2.5c.277 1.24.546 2.465.807 3.675l.512 2.4a409.02 409.02 0 011.182 5.825l.434 2.261c5.92 31.39 5.226 51.35-4.2 62.896-4.717 5.778-11.429 8.72-19.113 9.334-5.674.454-12.01-.337-19.244-2.2l-1.218-.322a114.65 114.65 0 01-2.503-.708l-1.285-.386-1.306-.408c-.44-.14-.882-.283-1.33-.43l-1.35-.45c-.454-.154-.912-.312-1.374-.473l-1.395-.494-1.419-.516-.717-.266-1.452-.548-1.475-.57-1.497-.59-1.52-.614-1.543-.634-.78-.325-1.578-.667c-.53-.226-1.063-.456-1.6-.689l-1.624-.71-.82-.363-1.658-.742-.838-.38-1.693-.775-1.716-.796-.867-.406-1.752-.83a409.4 409.4 0 01-.884-.422l-1.787-.861-1.81-.883-1.835-.905-1.857-.926-.938-.471-1.894-.96-1.917-.98c-7.86-4.037-10.959-13.683-6.92-21.543 4.037-7.86 13.683-10.958 21.543-6.92l1.68.86 1.657.84 1.635.82 2.409 1.194 1.577.772 1.553.753 2.288 1.092 1.495.704 1.473.685 1.449.665 1.425.645 1.402.626 1.378.607 1.355.587 1.33.568 1.308.548 1.283.53 1.26.509.62.247 1.224.48 1.2.46 1.174.442.579.213 1.139.412 1.115.393 1.09.373 1.066.353 1.041.334 1.017.315c.335.101.666.2.993.295l.968.275.943.256.462.12a56.34 56.34 0 003.638.82l.794.14c.385.065.752.12 1.101.166l.404.05.027-.186c.326-2.351.44-5.43.294-9.18l-.05-1.12-.064-1.13-.037-.575-.084-1.173c-.03-.396-.064-.797-.099-1.202l-.112-1.233c-.04-.415-.082-.836-.127-1.261l-.14-1.291-.155-1.32c-.054-.445-.11-.895-.169-1.35l-.183-1.379-.197-1.407-.21-1.437-.226-1.467-.118-.743-.246-1.51-.26-1.538-.275-1.568-.143-.794-.296-1.61-.31-1.64-.324-1.668-.339-1.696-.352-1.725c-.06-.29-.12-.581-.182-.873l-.374-1.768-.388-1.796-.403-1.825-.63-2.79-.438-1.895c-2.007-8.605 3.342-17.209 11.948-19.215z" fill="url(#n)" fill-rule="nonzero" transform="rotate(-10 1956.728 3.883)"/><path d="M205.828 488.218c3.689 10.133-1.557 21.345-11.715 25.042-.846.308-1.7.554-2.556.741l-6.21 10.636a5.446 5.446 0 01-7.324 2.027 5.886 5.886 0 01-3.043-4.816l-2.03 1.69a5.44 5.44 0 01-7.573-.595 5.89 5.89 0 01-.73-6.708l-2.068 1.183a5.436 5.436 0 01-7.353-1.899 5.897 5.897 0 011.49-7.747l3.565-2.703a5.435 5.435 0 01-7.1-2.035 5.897 5.897 0 011.49-7.748l20.133-15.278a19.578 19.578 0 015.953-3.444c10.158-3.697 21.383 1.52 25.071 11.654z" fill="#FFCBC0"/><g transform="rotate(-5 5165.285 -188.972)"><rect fill="url(#o)" x="8" width="100" height="80" rx="4"/><rect fill="url(#p)" width="100" height="80" rx="4"/><rect fill="url(#q)" y="80" width="173" height="11" rx="4"/></g><g><path d="M109.744 118.987c7.36-8.235 20.004-8.944 28.24-1.583 7.918 7.078 12.481 16.285 14.31 26.909 1.298 7.538 1.22 15.313.205 24.743-.065.603-.131 1.195-.201 1.792l-.116.965.06-.039c6.524-4.169 15.153-4.314 21.946.26l.303.208c9.049 6.335 11.25 18.805 4.915 27.854l-.96 1.36c-8.295 11.634-15.968 19.57-24.155 24.011-13.78 7.475-29.026 4.42-38.303-8.343-4.987-6.86-6.583-14.562-6.435-23.779l.019-.864.033-1.065.055-1.286.042-.762.068-1.022.061-.782.096-1.079.085-.846.13-1.196.193-1.628.282-2.201.342-2.534 1.071-7.673.375-2.856.19-1.569.134-1.21.105-1.009.092-.974.082-.942.07-.908.058-.875.025-.426.042-.827.032-.796.022-.764.007-.371.006-.719v-.347l-.009-.674-.018-.644a37.51 37.51 0 00-.012-.311l-.032-.6-.04-.573-.049-.544a21.646 21.646 0 00-.16-1.24l-.077-.45a15.407 15.407 0 00-.042-.214l-.089-.41-.096-.386-.104-.36a9.198 9.198 0 00-.054-.17l-.114-.323-.12-.3c-.247-.574-.533-1.007-.848-1.314l-.079-.074c-8.235-7.36-8.944-20.004-1.583-28.24z" fill="url(#r)" fill-rule="nonzero" transform="translate(373 296)"/><path d="M75.64 104.5h31.633c21.14 0 38.641 16.425 39.98 37.522l7.4 116.533c.467 7.36-5.121 13.705-12.481 14.173-.282.018-.564.026-.846.026H41.588c-7.375 0-13.354-5.978-13.354-13.353 0-.282.01-.565.027-.846l7.4-116.533C37 120.925 54.5 104.499 75.64 104.499z" fill="url(#s)" transform="translate(373 296)"/><g fill="#FFF"><path d="M429 454c0-6.075 4.897-11 10.937-11 6.04 0 10.936 4.925 10.936 11s-4.896 11-10.936 11S429 460.075 429 454zm8.04-2.468a5.023 5.023 0 01-.74.057 4.18 4.18 0 01-.986-.116 4.47 4.47 0 01-1.432-.648c-.057-.038-.163-.077-.203-.05-.051.035-.08.134-.081.206-.007.419-.004.837-.004 1.255v4.864c-.001.227.077.412.27.532.809.508 1.693.73 2.645.69.741-.032 1.458-.198 2.159-.426.78-.255 1.554-.53 2.331-.792.681-.23 1.373-.416 2.09-.484 1.046-.099 2.032.09 2.935.652.21.13.297.078.297-.163v-3.327l.001-2.792c.001-.265-.113-.458-.331-.606-1.182-.805-2.471-.905-3.806-.53-.778.218-1.537.512-2.296.795-.934.35-1.854.734-2.85.883zM458.196 448.722h.165l-.028.007c2.715.095 4.888 2.366 4.888 5.16 0 2.8-2.18 5.073-4.902 5.161l.042.01h-3.842v-10.338h3.6l.018-.001.02-.001.04.002zm13.154-.002c2.37 0 4.293 1.934 4.346 4.34h.005v5.998h-2.175v-2.217h-4.352v2.217h-2.175v-5.998h.005c.053-2.406 1.976-4.34 4.346-4.34zm24.969 0c2.37 0 4.293 1.934 4.346 4.34h.005v5.998h-2.175v-2.217h-4.352v2.217h-2.175v-5.998h.005c.053-2.406 1.976-4.34 4.346-4.34zm-12.478 0c2.37 0 4.293 1.934 4.346 4.34h.005v5.998h-2.175v-5.91c-.008-1.22-.978-2.207-2.176-2.207-1.197 0-2.168.987-2.175 2.207h-.001v5.91h-2.175v-5.998c.058-2.406 1.981-4.34 4.351-4.34zm-27.151 2.222v.412h.004v5.068l-.004-.001v.412l1.653-.004c1.509-.099 2.703-1.375 2.703-2.94 0-1.568-1.2-2.847-2.715-2.94l-1.641-.007zm14.66-.001c-1.197 0-2.168.987-2.176 2.207v1.473h4.352l-.001-1.473c-.006-1.22-.977-2.207-2.175-2.207zm24.969 0c-1.197 0-2.168.987-2.175 2.207h-.001v1.473h4.352v-1.473c-.008-1.22-.979-2.207-2.176-2.207z"/></g><path d="M468.46 477.094l16.594-17.94a5.603 5.603 0 00.108-7.488 5.152 5.152 0 00-7.179-.57l-17.349 14.452 7.827 11.546zM540.267 479.413l-16.593-17.94a5.603 5.603 0 01-.108-7.488 5.152 5.152 0 017.178-.57l17.35 14.452-7.827 11.546z" fill="#FF9983"/><g transform="rotate(5 -4662.215 5775.302)"><rect fill="#151E2E" width="37.704" height="62.84" rx="3.142"/><rect fill="#242E41" x="6.284" width="37.704" height="62.84" rx="3.142"/><path d="M12.568 3.142h6.284a3.142 3.142 0 010 6.284h-6.284a3.142 3.142 0 010-6.284z" fill="#151E2E"/></g><g transform="rotate(120 144.615 398.256)" fill="#FFCBC0"><circle cx="18.665" cy="19.016" r="18.547"/><path d="M.422 22.499l3.205 20.2a5.603 5.603 0 006.431 3.838 5.152 5.152 0 004.084-5.931L10.3 18.355.422 22.499z"/><path d="M6.273 23.248l7.24 23.34a5.603 5.603 0 006.43 3.837 5.152 5.152 0 004.084-5.931l-3.842-22.251-13.912 1.005z"/><path d="M11.685 19.402L22.868 41.13a5.603 5.603 0 007 2.662 5.152 5.152 0 002.99-6.55l-7.646-21.246-13.527 3.406z"/><path d="M11.869 17.038l17.94 16.593a5.603 5.603 0 007.488.108 5.152 5.152 0 00.57-7.179L23.415 9.211l-11.546 7.827z"/></g><path d="M55.573 120.589c9.552 5.548 12.797 17.788 7.25 27.34l-.995 1.72-.973 1.696-1.418 2.501-.918 1.639-.897 1.615-.874 1.592-.853 1.569-.83 1.545-1.205 2.273-.776 1.486-.754 1.462-.732 1.438-.71 1.415-.689 1.39-.666 1.367-.645 1.342-.622 1.319-.303.65-.59 1.282-.286.631-.557 1.246-.534 1.22-.26.602-.501 1.184-.48 1.16c-.156.382-.308.76-.457 1.134l-.436 1.11-.21.546-.402 1.073-.136.368.465-.22 1.049-.507.533-.264 1.086-.545 1.112-.57 1.136-.597c.191-.101.384-.203.577-.307l1.174-.633 1.198-.659 1.223-.683 1.247-.709 1.271-.734.645-.376 1.308-.77.663-.396 1.344-.808 1.368-.834 1.392-.859 1.416-.883 1.439-.909 1.463-.933 1.486-.958.751-.489 1.521-.995 1.544-1.02 1.567-1.046.743-.498c9.164-6.167 21.592-3.737 27.758 5.427 6.167 9.165 3.737 21.593-5.428 27.759l-1.764 1.182-1.744 1.158-.865.57-1.713 1.12-1.692 1.095-1.672 1.071-1.652 1.047-1.631 1.022-.809.501-1.601.985-1.581.96-1.562.936-.773.46-1.532.898-1.512.874c-.5.288-.998.571-1.493.85l-1.473.826c-1.22.677-2.42 1.33-3.599 1.956l-1.406.74-1.387.714-1.368.691-.677.336-1.34.654-.663.318-1.312.618-.649.3-1.284.58a108.424 108.424 0 01-7.905 3.182c-7.517 2.665-14.322 3.972-20.778 3.612-9.097-.508-17.24-4.42-22.641-11.85-4.58-6.3-6.327-13.776-6.01-21.955.239-6.152 1.66-12.864 4.142-20.361.79-2.388 1.699-4.88 2.724-7.48l.571-1.428c.195-.48.393-.963.595-1.45l.618-1.471.64-1.493.33-.754.676-1.525.347-.77.71-1.557.735-1.58.376-.797.77-1.611.793-1.634.816-1.655.84-1.678.863-1.7.887-1.721.452-.87.921-1.754.47-.886.957-1.79.98-1.81 1.004-1.834 1.027-1.856 1.05-1.88 1.075-1.901 1.097-1.925.558-.97 1.133-1.96c5.548-9.551 17.788-12.797 27.34-7.249z" fill="url(#t)" fill-rule="nonzero" transform="translate(373 296)"/><g transform="scale(1 -1) rotate(-60 -188.706 -618.418)" fill="#FFCBC0"><circle cx="18.81" cy="18.547" r="18.547"/><path d="M1.26 24.5L8.5 47.84a5.603 5.603 0 006.43 3.837 5.152 5.152 0 004.084-5.931l-3.841-22.25L1.26 24.5z"/><path d="M13.069 26.725l7.24 23.34a5.603 5.603 0 006.43 3.838 5.152 5.152 0 004.084-5.931L26.981 25.72 13.07 26.725z"/><path d="M18.481 22.88l11.183 21.728a5.603 5.603 0 007 2.662 5.152 5.152 0 002.991-6.55l-7.647-21.246-13.527 3.405z"/><path d="M18.665 20.516l17.94 16.593a5.603 5.603 0 007.488.108 5.152 5.152 0 00.57-7.179L30.212 12.69l-11.546 7.827z"/></g><path d="M456.5 296h14c21.815 0 39.5 17.685 39.5 39.5V368c0 8.284-6.716 15-15 15h-63c-8.284 0-15-6.716-15-15v-32.5c0-21.815 17.685-39.5 39.5-39.5z" fill="#553C3C"/><path d="M443.091 385.81h42.732v26.708c0 11.8-9.566 21.365-21.366 21.365-11.8 0-21.366-9.565-21.366-21.365V385.81z" fill="#FF9983"/><g transform="translate(411.043 320.378)"><path d="M95.756 42.324c-5.987 0-5.987-21.68 0-21.68s10.84 4.853 10.84 10.84-4.853 10.84-10.84 10.84zM11.05 42.324c5.986 0 5.986-21.68 0-21.68-5.988 0-10.84 4.853-10.84 10.84s4.852 10.84 10.84 10.84z" fill="#FFC0B3"/><path d="M24.007.838h58.755c7.375 0 13.354 5.979 13.354 13.354v31.772c0 23.6-19.131 42.731-42.731 42.731S10.653 69.564 10.653 45.964V14.192c0-7.375 5.979-13.354 13.354-13.354z" fill="#FFCBC0"/><circle fill="#313131" fill-rule="nonzero" cx="75.023" cy="38.796" r="6.009"/><circle fill="#313131" fill-rule="nonzero" cx="36.297" cy="38.796" r="6.009"/><path d="M95.48.838v87.857V.838z" fill="#FFCBC0"/><path d="M61.452 44.705l1.795 6.026a3.388 3.388 0 11-6.493 0l1.795-6.026a1.515 1.515 0 012.903 0z" fill="#FF9983"/><path d="M49.9 63.708l16.384-.674a2.546 2.546 0 012.633 2.89c-.722 5.131-4.013 7.875-9.874 8.232-5.78.35-9.593-1.992-11.443-7.03a2.544 2.544 0 011.525-3.264c.249-.09.51-.143.775-.154z" fill="#E66246"/></g><path d="M434.39 316.372h55.378c0 15.487-12.555 28.042-28.043 28.042H420.39v-14.042c0-7.732 6.268-14 14-14z" fill="#553C3C"/><path d="M488.524 317.707H477.81c0 15.488 12.555 28.043 28.043 28.043h2.67v-8.043c0-11.046-8.954-20-20-20z" fill="#553C3C"/><path d="M452.113 346.314a2.003 2.003 0 01.193 3.997l-.193.01h-8.012a2.003 2.003 0 01-.193-3.998l.193-.009h8.012zM490.596 345.073a2.003 2.003 0 01.193 3.997l-.193.009h-8.012a2.003 2.003 0 01-.193-3.997l.193-.01h8.012z" fill="#553C3C" fill-rule="nonzero"/></g><g><path d="M287.655 201.936l28.936-2.531c1.915-.168 3.837.21 5.543 1.084l.362.195a11.07 11.07 0 005.915 1.42l14.568-.62c9.917-.424 18.41 7.033 19.275 16.92l4.864 55.59c1.403 16.04-10.462 30.18-26.5 31.583l-43.562 3.81c-16.039 1.404-30.179-10.46-31.582-26.5l-4.32-49.37c-1.402-16.038 10.462-30.178 26.501-31.58z" fill="#313131"/><path d="M2.9 63.894c1.085-10.992 10.875-19.024 21.867-17.94 10.878 1.074 18.857 10.672 17.97 21.525l-.03.343c-3.325 33.695 5.182 55.21 25.188 67.99l1.572 1 1.558.977 1.545.958.768.471 1.524.928 1.511.907 1.498.887 1.483.867.737.425 1.463.837 1.449.816 1.435.797.712.39 1.415.766 1.4.746.695.366 1.38.716 1.364.696 1.351.676 1.337.657.663.32 1.315.626.653.306 1.294.597c2.144.977 4.23 1.872 6.253 2.685l1.207.477 1.193.458 1.178.438c.39.143.777.283 1.163.419l1.148.399c.57.194 1.135.382 1.695.561l1.111.35 1.096.33c4.174 1.23 8.019 2.027 11.522 2.4l.455.046c10.995 1.061 19.047 10.835 17.985 21.83-1.061 10.994-10.835 19.046-21.83 17.984-12.207-1.178-25.563-5.11-40.204-11.724l-1.632-.746-1.642-.768-1.654-.79a247.28 247.28 0 01-10.145-5.202l-1.73-.944a294.738 294.738 0 01-4.37-2.455l-1.768-1.02-1.779-1.042-1.79-1.064-.899-.54-1.806-1.096-.908-.556-1.824-1.13-1.835-1.15c-.613-.387-1.229-.778-1.846-1.172C12.57 147.936-1.805 111.578 2.9 63.894z" fill="url(#u)" transform="rotate(-5 2097.918 -1501.055)"/><path d="M165.255 174.833c-3.73.327-6.49 3.629-6.162 7.376l.138 1.562a6.738 6.738 0 00-4.56-1.263c-3.731.326-6.49 3.628-6.162 7.375l.024.272a6.77 6.77 0 00-1.608-.05c-3.73.326-6.49 3.628-6.162 7.375l2.506 28.645c.025.284.067.561.125.833.014.495.042.993.086 1.494 1.018 11.64 10.079 20.637 21.2 21.948 1.974.452 4.237.354 6.577-.129a23.889 23.889 0 009.878-3.937c3.515-2.053 6.4-4.506 7.683-6.594 2.278-3.707 6.279-12.119 12.003-25.235l1.587-3.664c1.369-3.485-.336-7.426-3.807-8.803a8.222 8.222 0 00-10.084 3.42l-1.275 2.125-2.056-23.491c-.32-3.668-3.48-6.402-7.111-6.21l-.238.016a6.763 6.763 0 00-5.22 3.275l-.013-.146c-.328-3.747-3.618-6.52-7.349-6.194z" fill="#FFCBC0"/><path fill="url(#v)" fill-rule="nonzero" d="M103.22 328.51h130.794v108H103.22z" transform="rotate(-5 2097.918 -1501.055)"/><path d="M150.718 157.204h34.529c23.074 0 42.177 17.929 43.64 40.957l8.076 127.2c.51 8.035-5.59 14.96-13.623 15.471-.308.02-.616.03-.924.03H113.548c-8.05 0-14.576-6.527-14.576-14.577 0-.308.01-.616.03-.923l8.076-127.2c1.462-23.029 20.565-40.958 43.64-40.958z" fill="url(#w)" transform="rotate(-5 2097.918 -1501.055)"/><g fill="#FFF"><path d="M275.414 390.842c-.747-8.527 5.424-16.033 13.78-16.765 8.358-.73 15.738 5.59 16.484 14.117.746 8.529-5.424 16.034-13.782 16.765-8.357.732-15.736-5.589-16.482-14.117zm10.82-4.438c-.337.082-.676.14-1.016.17-.457.04-.916.029-1.38-.043-.733-.113-1.412-.377-2.06-.737-.084-.046-.235-.087-.286-.045-.067.055-.095.198-.088.3.042.587.098 1.174.15 1.761l.19 2.17.406 4.657c.027.32.158.57.44.715 1.18.615 2.431.82 3.743.648 1.023-.135 1.993-.454 2.936-.86 1.048-.452 2.084-.931 3.128-1.393.914-.404 1.848-.75 2.832-.933 1.435-.265 2.823-.118 4.141.56.305.157.42.074.391-.264l-.376-4.305-.032-.366c-.115-1.307-.23-2.612-.342-3.918-.032-.373-.213-.63-.533-.812-1.734-.987-3.53-.971-5.33-.284-1.051.401-2.065.906-3.08 1.396-1.249.603-2.475 1.254-3.834 1.583zM315.107 379.901c.018-.001.036 0 .054-.002l.228-.02-.038.013c3.768-.195 7.055 2.73 7.398 6.652.343 3.93-2.395 7.385-6.15 7.838l.06.01-5.316.465-1.27-14.513 4.98-.435.054-.008zm18.253-1.597c3.28-.287 6.178 2.196 6.547 5.567l.007-.001.737 8.42-3.01.263-.272-3.113-6.022.527.272 3.113-3.009.263-.737-8.42h.007c-.221-3.384 2.202-6.332 5.48-6.619zm34.548-3.022c3.278-.287 6.177 2.195 6.546 5.566h.007l.737 8.419-3.01.263-.272-3.112-6.022.527.273 3.112-3.01.263-.737-8.42h.008c-.223-3.383 2.201-6.332 5.48-6.618zm-17.265 1.51c3.28-.287 6.178 2.196 6.547 5.566h.007l.736 8.42-3.01.263-.725-8.297c-.16-1.711-1.625-2.98-3.282-2.835-1.657.145-2.878 1.649-2.739 3.362l.725 8.297-3.01.263-.736-8.42c-.215-3.384 2.208-6.332 5.487-6.619zm-37.293 6.406l.05.578.006-.002.623 7.115h-.007l.051.578 2.287-.206c2.075-.32 3.571-2.258 3.379-4.454-.193-2.2-2.011-3.85-4.118-3.798l-2.271.189zm20.283-1.777c-1.656.145-2.879 1.649-2.739 3.362l.18 2.068 6.022-.527-.18-2.067h-.002c-.159-1.712-1.624-2.98-3.281-2.836zm34.547-3.022c-1.656.145-2.878 1.648-2.738 3.362h-.001l.18 2.067 6.022-.527-.18-2.067h-.002c-.16-1.712-1.624-2.98-3.28-2.835z"/></g><path d="M295.223 305.159l46.465-4.065 2.541 29.04c1.123 12.832-8.369 24.143-21.2 25.266-12.831 1.123-24.143-8.37-25.265-21.2l-2.541-29.041z" fill="#FF9983"/><g transform="rotate(-5 2841.825 -2791.952)"><path d="M104.522 46.199c-6.535 0-6.535-23.665 0-23.665s11.832 5.297 11.832 11.832c0 6.535-5.297 11.833-11.832 11.833zM12.06 46.199c6.536 0 6.536-23.665 0-23.665C5.527 22.534.229 27.83.229 34.366c0 6.535 5.298 11.833 11.833 11.833z" fill="#FFC0B3"/><path d="M26.204.915H90.34c8.05 0 14.576 6.526 14.576 14.576v34.68c0 25.76-20.883 46.644-46.644 46.644-25.76 0-46.643-20.883-46.643-46.643V15.49c0-8.05 6.526-14.576 14.576-14.576z" fill="#FFCBC0"/><circle fill="#313131" fill-rule="nonzero" cx="76.524" cy="40.084" r="6.559"/><circle fill="#313131" fill-rule="nonzero" cx="37.169" cy="40.084" r="6.559"/><path d="M104.221.915v95.9-95.9z" fill="#FFCBC0"/><path d="M57.856 49.047l1.96 6.578a3.698 3.698 0 11-7.089 0l1.96-6.578a1.653 1.653 0 013.169 0z" fill="#FF9983"/><path d="M47.732 69.585l20.993-3.07a3.307 3.307 0 013.783 3.383c-.225 6.732-4.084 10.72-11.579 11.968-7.388 1.229-12.618-1.289-15.688-7.553a3.307 3.307 0 012.491-4.728z" fill="#E66246"/></g><path d="M263.932 231.812l31.945-2.795c1.473 16.84-10.984 31.687-27.825 33.16l-1.452.128-2.668-30.493z" fill="#313131"/><path d="M292.846 227.819l34.85-3.049c1.473 16.84-10.985 31.687-27.826 33.16l-4.356.382-2.668-30.493z" fill="#313131"/><path d="M359.894 224.88l-33.397 2.921c1.474 16.841 16.32 29.299 33.161 27.825l2.904-.254-2.668-30.493z" fill="#313131"/><path stroke="#313131" stroke-width="4.373" stroke-linecap="round" d="M288.634 263.303l8.713-.762M329.165 258.294l8.712-.762"/></g><g><path d="M23.512 55.031L1.907 43.215a3.664 3.664 0 010-6.43L23.512 24.97a3.664 3.664 0 001.457-1.457L36.785 1.907a3.664 3.664 0 016.43 0L55.03 23.512c.337.615.842 1.12 1.457 1.457l21.605 11.816a3.664 3.664 0 010 6.43L56.488 55.03a3.664 3.664 0 00-1.457 1.457L43.215 78.093a3.664 3.664 0 01-6.43 0L24.97 56.488a3.664 3.664 0 00-1.457-1.457z" fill="url(#x)" transform="translate(76 168)"/><path d="M99.512 223.031l-21.605-11.816a3.664 3.664 0 010-6.43l21.605-11.816a3.664 3.664 0 001.457-1.457l11.816-21.605a3.664 3.664 0 016.43 0l11.816 21.605c.337.615-30.904 31.856-31.519 31.52z" fill="#FFF"/></g><g><path d="M16.458 38.522L1.335 30.25a2.565 2.565 0 010-4.5l15.123-8.272c.43-.235.785-.59 1.02-1.02L25.75 1.335a2.565 2.565 0 014.5 0l8.272 15.123c.235.43.59.785 1.02 1.02l15.123 8.272a2.565 2.565 0 010 4.5l-15.123 8.272c-.43.235-.785.59-1.02 1.02L30.25 54.665a2.565 2.565 0 01-4.5 0l-8.272-15.123a2.565 2.565 0 00-1.02-1.02z" fill="url(#x)" transform="translate(48 235)"/><path d="M64.458 273.522l-15.123-8.272a2.565 2.565 0 010-4.5l15.123-8.272c.43-.235.785-.59 1.02-1.02l8.272-15.123a2.565 2.565 0 014.5 0l8.272 15.123c.235.43-21.633 22.3-22.064 22.064z" fill="#FFF"/></g><g><path d="M11.756 27.516L.953 21.607a1.832 1.832 0 010-3.214l10.803-5.909c.307-.168.56-.42.728-.728L18.393.953a1.832 1.832 0 013.214 0l5.909 10.803c.168.307.42.56.728.728l10.803 5.909a1.832 1.832 0 010 3.214l-10.803 5.909c-.307.168-.56.42-.728.728l-5.909 10.803a1.832 1.832 0 01-3.214 0l-5.909-10.803a1.832 1.832 0 00-.728-.728z" fill="url(#x)" transform="translate(521 392)"/><path d="M532.756 419.516l-10.803-5.909a1.832 1.832 0 010-3.214l10.803-5.909c.307-.168.56-.42.728-.728l5.909-10.803a1.832 1.832 0 013.214 0l5.909 10.803c.168.307-15.453 15.928-15.76 15.76z" fill="#FFF"/></g></g><g filter="url(#y)" mask="url(#c)"><path d="M347.88 167.491c7.748 0 50.88-43.619 50.88-72.036C398.76 67.037 375.98 44 347.88 44S297 67.037 297 95.455c0 28.417 43.131 72.036 50.88 72.036z" fill="#FFF"/><path d="M309.575 95.12c0-21.287 17.258-38.545 38.545-38.545 21.288 0 38.546 17.258 38.546 38.545 0 21.289-17.258 38.546-38.546 38.546-21.287 0-38.545-17.257-38.545-38.546zm28.336-8.648c-.871.129-1.74.2-2.606.2-1.164 0-2.322-.127-3.478-.405-1.83-.44-3.487-1.241-5.045-2.272-.203-.134-.576-.269-.715-.176-.182.122-.283.47-.287.724-.025 1.465-.013 2.931-.013 4.398l.002 5.414c0 3.876 0 7.75-.005 11.627-.002.796.275 1.443.955 1.867 2.849 1.778 5.966 2.557 9.32 2.415 2.614-.111 5.138-.692 7.61-1.493 2.75-.893 5.475-1.856 8.217-2.774 2.398-.803 4.838-1.458 7.364-1.697 3.687-.346 7.163.32 10.345 2.286.737.454 1.047.272 1.047-.57l.001-10.747v-.914c0-3.262-.004-6.521.003-9.78.002-.932-.4-1.607-1.168-2.127-4.165-2.82-8.71-3.17-13.412-1.858-2.745.766-5.42 1.795-8.095 2.789-3.289 1.223-6.533 2.571-10.04 3.093z" fill="#108EE9" fill-rule="nonzero"/></g></g></svg>